<svg width="34" height="34" viewBox="0 0 34 34" fill="none" xmlns="http://www.w3.org/2000/svg">
<path d="M26.9624 8.75H12.6538C10.6248 8.75 8.97998 10.3948 8.97998 12.4238V26.7324C8.97998 28.7614 10.6248 30.4062 12.6538 30.4062H26.9624C28.9914 30.4062 30.6362 28.7614 30.6362 26.7324V12.4238C30.6362 10.3948 28.9914 8.75 26.9624 8.75Z" stroke="white" stroke-width="2.0625" stroke-linejoin="round"/>
<path d="M25.4478 8.75L25.48 7.20312C25.4773 6.2467 25.0961 5.33022 24.4198 4.65392C23.7435 3.97762 22.827 3.59647 21.8706 3.59375H7.94873C6.85571 3.59698 5.80837 4.03262 5.03548 4.8055C4.2626 5.57839 3.82696 6.62573 3.82373 7.71875V21.6406C3.82645 22.5971 4.2076 23.5135 4.8839 24.1898C5.5602 24.8661 6.47668 25.2473 7.43311 25.25H8.97998" stroke="white" stroke-width="2.0625" stroke-linecap="round" stroke-linejoin="round"/>
</svg>
