<svg width="383" height="113" viewBox="0 0 383 113" fill="none" xmlns="http://www.w3.org/2000/svg">
<path d="M80.0667 25.7074L82.8768 33.9356L99.7819 16.7687C99.7819 16.7687 105.424 25.7762 98.1315 33.4772L86.8243 45.0975L89.9243 53.6236L100.54 42.4158C100.54 42.4158 105.045 53.6236 98.3322 59.491L88.5861 69.5069L75.0041 28.6411L60.8421 43.1493L46.3903 28.6411L33.5888 68.9568C33.5888 68.9568 21.6794 57.1303 21.6794 55.2738C21.6794 55.2738 19.07 47.6645 22.4823 42.5304L33.1873 53.3256L35.9974 45.0058L24.601 33.5001C24.601 33.5001 17.7542 26.1887 23.1736 16.7917L39.9895 34.1189L42.7996 25.4782L22.5938 4.87343C22.5938 4.87343 5.77787 18.6023 17.5312 37.1902C17.5312 37.1902 6.49154 52.3859 21.3894 66.7795L37.291 83.1212L50.0032 43.5389L60.909 54.9529L71.3019 43.9973L84.817 84.3589L102.525 65.7481C102.525 65.7481 114.479 56.2823 105.893 36.9151C105.893 36.9151 117.133 20.115 100.027 4.89634L80.0667 25.7074Z" fill="url(#paint0_linear_4002_4)"/>
<path d="M84.7502 84.7027L71.235 44.3411L60.9091 55.205L50.0702 43.8827L37.3579 83.465L21.2557 66.917C17.8434 63.6165 15.5017 59.9952 14.3197 56.1447C13.383 53.0735 13.1599 49.8418 13.6952 46.5643C14.4981 41.4991 16.8621 37.8548 17.3082 37.1902C14.6542 32.95 13.2492 28.6182 13.1822 24.3093C13.1153 20.8255 13.8959 17.3646 15.5017 13.9955C18.2226 8.26554 22.46 4.78174 22.4823 4.7359L22.6161 4.64423L43.0227 25.4095L40.1011 34.4398L23.196 17.0438C20.5643 21.7652 21.0772 25.9137 21.9916 28.5724C22.9952 31.5061 24.6679 33.3167 24.6902 33.3397L36.1759 44.937L33.2543 53.6465L22.5046 42.8055C20.8988 45.3954 20.7873 48.5583 20.9657 50.8044C21.1888 53.3027 21.8355 55.1821 21.8355 55.205V55.2279V55.2509C21.8355 55.6634 22.5938 57.1532 27.7456 62.6539C30.2435 65.3355 32.7636 67.8796 33.4996 68.5901L46.3011 28.2744L60.8199 42.8513L75.071 28.2744L88.6308 69.1402L98.1984 59.3077C101.611 56.3281 102.012 51.9275 101.744 48.7417C101.521 45.8767 100.719 43.4931 100.451 42.7138L89.8351 53.9215L86.6013 45.0058L97.9977 33.2938C101.722 29.3746 101.968 25.1115 101.521 22.2236C101.12 19.6108 100.094 17.6168 99.7373 17.0209L82.7876 34.2335L79.866 25.6386L79.9329 25.547L100.005 4.59839L100.139 4.71299C104.064 8.19678 106.807 12.0702 108.324 16.2187C109.528 19.542 109.952 23.0258 109.55 26.6013C108.926 32.1937 106.495 36.2734 106.093 36.9151C108.034 41.3157 109.06 45.5788 109.149 49.5668C109.216 52.7985 108.703 55.8468 107.565 58.643C105.714 63.2728 102.815 65.7022 102.614 65.8627L84.7502 84.7027ZM71.3688 43.6764L71.458 43.9515L84.884 84.038L102.391 65.6335C102.414 65.6106 105.38 63.2269 107.253 58.5284C108.97 54.1966 110.108 46.9539 105.714 37.0068L105.67 36.9151L105.737 36.8234C105.759 36.7776 108.524 32.5833 109.193 26.5783C109.796 21.0776 108.68 12.9182 100.027 5.14845L80.2674 25.7762L82.9437 33.6147L99.8042 16.4937L99.9157 16.6771C99.9826 16.7687 101.365 18.9919 101.856 22.2007C102.146 24.0801 102.079 25.9366 101.633 27.6556C101.075 29.81 99.938 31.827 98.243 33.5918L87.025 45.1204L89.9912 53.2798L100.585 42.0721L100.696 42.3242C100.719 42.3471 101.834 45.1891 102.124 48.7188C102.302 50.7815 102.146 52.7068 101.678 54.3799C101.098 56.4885 100.005 58.2533 98.466 59.6056L88.5192 69.8278L74.9372 28.962L60.8422 43.3785L46.4795 28.962L33.678 69.2548L33.4773 69.0485C33.455 69.0256 30.4665 66.046 27.5226 62.906C25.783 61.0495 24.4226 59.491 23.419 58.2763C21.7686 56.2593 21.5233 55.5947 21.5233 55.2738C21.4341 55.0217 20.8542 53.1881 20.6535 50.8044C20.4528 48.4437 20.5643 45.0745 22.3485 42.3929L22.46 42.2096L33.1205 52.9589L35.7967 45.0058L24.4672 33.5688C24.4003 33.5001 22.7053 31.6665 21.6794 28.664C21.0773 26.8992 20.8096 25.0886 20.9211 23.3008C21.0549 21.0547 21.7686 18.8086 23.0175 16.6312L23.1291 16.4249L39.9227 33.7064L42.5989 25.4553L22.5715 5.12554C21.8578 5.74437 18.2226 9.04481 15.7916 14.1559C13.3161 19.3587 11.6434 27.5639 17.665 37.0985L17.7319 37.2131L17.665 37.3048C17.6427 37.3506 14.9218 41.1323 14.0297 46.6331C13.2268 51.6983 13.8513 59.2618 21.501 66.6419L37.2018 82.7774L49.9141 43.1951L60.8868 54.6779L71.3688 43.6764Z" fill="url(#paint1_linear_4002_4)" stroke="white" stroke-miterlimit="10"/>
<path d="M66.6183 74.0679L73.532 66.4586L70.6327 58.0242L60.9312 68.3839L51.0513 58.0242L48.3304 66.9628L55.5341 74.1596L43.2232 86.903L61.0427 104.895L78.6615 86.4904L66.6183 74.0679ZM60.9089 93.6643L54.1513 86.9717L60.9089 80.2792L67.3096 86.7196L60.9089 93.6643Z" fill="url(#paint2_linear_4002_4)" stroke="white" stroke-miterlimit="10"/>
<path d="M60.9982 105.193L60.8643 105.055L42.9333 86.9259L55.2442 74.1825L48.0852 67.0316L50.9176 57.6804L60.8867 68.1088L70.655 57.6804L73.6881 66.4815L73.6213 66.5732L66.8414 74.045L78.84 86.4904L78.7284 86.6279L60.9982 105.193ZM43.4463 86.9259L60.9982 104.666L78.3716 86.5133L66.373 74.0679L73.309 66.4128L70.5435 58.3679L60.909 68.636L51.096 58.3679L48.4866 66.917L55.7348 74.1596L43.4463 86.9259ZM60.909 93.9164L53.8837 86.9717L60.909 80.027L67.555 86.7196L60.909 93.9164ZM54.3967 86.9717L60.909 93.4121L67.0644 86.7425L60.909 80.5313L54.3967 86.9717Z" fill="url(#paint3_linear_4002_4)" stroke="white" stroke-miterlimit="10"/>
<path d="M101.521 88.6907L105.335 84.3818C124.671 79.9583 121.66 61.1871 121.66 61.1871C104.488 68.7506 103.707 82.8232 103.707 82.8232C102.614 84.9777 99.4027 87.5447 99.4027 87.5447C102.414 81.2647 100.406 75.6265 100.406 75.6265C89.5005 83.6484 89.0991 94.6498 89.0991 94.6498C88.4077 95.2686 85.8876 96.7126 85.8876 96.7126C71.3911 104.024 67.8896 109.868 67.8896 109.868C69.094 110.785 69.6961 111.725 69.6961 111.725C74.4911 106.064 78.5947 103.909 78.5947 103.909C91.7977 113.788 102.614 102.259 102.614 102.259C96.4142 97.744 87.4041 98.6607 87.4041 98.6607C89.8128 96.7126 93.3142 95.9791 93.3142 95.9791C109.416 99.6692 117.936 87.6593 117.936 87.6593C109.037 84.9777 101.521 88.6907 101.521 88.6907ZM115.884 69.759C115.84 69.8736 112.918 77.185 106.74 80.7376C106.762 80.7376 110.063 75.2598 115.884 69.759ZM94.8754 102.878C94.8754 102.878 90.0135 105.33 80.8027 102.557C80.825 102.557 90.3257 101.457 94.8754 102.878ZM92.5559 92.4266C92.6005 92.312 95.9682 84.4276 97.797 82.3419C97.8193 82.3419 97.4178 87.8427 92.5559 92.4266ZM95.5221 94.6498C95.5221 94.6498 102.525 90.1346 109.639 90.2263C109.639 90.2263 101.521 94.1226 95.5221 94.6498Z" fill="url(#paint4_linear_4002_4)" stroke="white" stroke-miterlimit="10"/>
<path d="M69.6962 112L69.5624 111.794C69.5624 111.794 68.9602 110.877 67.8005 109.983L67.6667 109.891L67.7559 109.754C67.8005 109.685 68.6703 108.241 71.3466 105.858C73.7998 103.68 78.3272 100.288 85.8207 96.5063C85.9322 96.4375 88.2071 95.1311 88.943 94.5123C88.9653 94.031 89.1884 91.4181 90.5042 88.026C91.3517 85.8257 92.5114 83.74 93.8941 81.8148C95.6337 79.4082 97.797 77.2538 100.295 75.4202L100.473 75.2827L100.563 75.5119C100.585 75.5806 101.075 76.9787 101.209 79.179C101.321 81.0584 101.165 83.8546 99.8934 86.8571C100.852 86.0091 102.748 84.2443 103.529 82.7316C103.551 82.319 103.886 78.904 106.093 74.7097C107.454 72.0968 109.283 69.6903 111.491 67.5817C114.256 64.923 117.646 62.6998 121.594 60.9808L121.794 60.8891L121.839 61.1183C121.839 61.1642 122.575 65.9085 120.902 71.1342C119.921 74.2055 118.315 76.8412 116.152 78.9728C113.453 81.6085 109.84 83.465 105.424 84.4964L102.168 88.1636C102.993 87.8427 104.443 87.3155 106.339 86.9488C109.082 86.3987 113.342 86.0549 117.958 87.4301L118.204 87.4989L118.047 87.7052C118.025 87.7281 115.862 90.7764 111.736 93.2975C109.305 94.7873 106.696 95.8187 103.975 96.3459C100.585 97.0105 96.9942 96.9418 93.292 96.0938C92.9351 96.1625 90.1474 96.8272 87.984 98.3628C88.8538 98.317 90.5934 98.2711 92.6898 98.5003C95.4776 98.7983 99.4697 99.6692 102.704 102.03L102.882 102.145L102.748 102.305C102.726 102.328 99.9604 105.239 95.6337 106.866C93.0913 107.829 90.4819 108.172 87.9171 107.897C84.7502 107.554 81.6056 106.247 78.5948 104.024C77.948 104.391 74.1567 106.66 69.83 111.748L69.6962 112ZM68.1574 109.823C68.9825 110.487 69.4955 111.106 69.7408 111.427C74.4466 105.926 78.5056 103.772 78.5502 103.749L78.6394 103.703L78.7286 103.772C85.4862 108.814 91.597 108.104 95.5222 106.637C99.2244 105.239 101.745 102.924 102.369 102.305C99.2244 100.082 95.3884 99.2567 92.7121 98.9587C89.7459 98.6378 87.4934 98.8441 87.4711 98.8441L86.8689 98.9129L87.3373 98.5232C89.7459 96.5751 93.1805 95.8416 93.3143 95.8187H93.3589H93.4035C101.678 97.721 107.878 95.3603 111.624 93.0683C115.059 90.9597 117.111 88.4844 117.691 87.7739C113.23 86.4904 109.149 86.8342 106.473 87.3614C103.551 87.9344 101.678 88.8511 101.655 88.8741L100.83 89.2866L105.291 84.2443L105.335 84.2214C115.237 81.9523 119.118 75.8328 120.612 71.0884C122.04 66.5961 121.683 62.4706 121.549 61.4621C112.873 65.3355 108.547 70.905 106.45 74.916C104.153 79.2936 103.93 82.8003 103.93 82.8462V82.892L103.908 82.9379C102.793 85.1152 99.6927 87.6135 99.5589 87.7281L98.9568 88.2094L99.2913 87.4989C100.83 84.2901 101.009 81.2647 100.897 79.2936C100.808 77.6434 100.496 76.4287 100.362 75.9474C94.8977 80.0271 92.1769 84.886 90.8833 88.2323C89.456 91.9224 89.3445 94.6498 89.3222 94.6727V94.7415L89.2553 94.7873C88.5416 95.4062 86.133 96.8043 86.0215 96.873C78.5502 100.632 74.0897 103.978 71.6365 106.156C69.4286 108.058 68.425 109.41 68.1574 109.823ZM89.0768 104.07C86.9581 104.07 84.1704 103.772 80.7581 102.74L79.9106 102.488L80.7804 102.397C81.1596 102.351 90.3927 101.297 94.9201 102.718L95.3438 102.855L94.9424 103.061C94.8977 103.084 93.6711 103.703 91.3071 103.955C90.6826 104.001 89.9466 104.07 89.0768 104.07ZM81.7617 102.649C86.0215 103.818 89.2553 103.818 91.2402 103.588C92.7121 103.428 93.7603 103.107 94.3179 102.924C90.5934 101.961 84.1704 102.42 81.7617 102.649ZM94.8085 94.879L95.433 94.4894C95.4553 94.4894 97.2172 93.3434 99.8488 92.2203C102.28 91.1889 105.937 89.9742 109.64 90.043H110.398L109.706 90.3868C109.617 90.4326 101.499 94.306 95.5445 94.8332L94.8085 94.879ZM108.792 90.4097C105.447 90.5243 102.191 91.6244 100.005 92.5641C98.3769 93.2517 97.0834 93.9393 96.3474 94.3748C101.031 93.756 106.74 91.3265 108.792 90.4097ZM92.0654 93.1371L92.3999 92.3578C92.4445 92.2891 95.8121 84.3589 97.6855 82.2274L98.02 81.8377L97.9755 82.3649C97.9755 82.4107 97.8639 83.7859 97.1726 85.7341C96.5258 87.5218 95.21 90.1805 92.6898 92.5641L92.0654 93.1371ZM97.5517 82.9608C96.0798 85.0006 93.961 89.6992 93.1135 91.6473C95.1654 89.4929 96.2805 87.2009 96.8603 85.6195C97.2395 84.4964 97.4625 83.5567 97.5517 82.9608ZM106.25 81.2418L106.606 80.6459C106.629 80.6001 109.996 75.0764 115.773 69.6215L116.353 69.0715L116.063 69.8278C116.063 69.8507 115.304 71.7531 113.765 74.0679C112.383 76.1536 110.063 79.0415 106.852 80.9209L106.25 81.2418ZM115.349 70.5154C111.134 74.618 108.324 78.6519 107.32 80.1875C110.152 78.3539 112.204 75.764 113.476 73.8617C114.368 72.4865 114.992 71.2717 115.349 70.5154Z" fill="url(#paint5_linear_4002_4)" stroke="white" stroke-miterlimit="10"/>
<path d="M37.1124 96.6896C37.1124 96.6896 34.6146 95.2457 33.9009 94.6268C33.9009 94.6268 33.4995 83.6254 22.5937 75.6035C22.5937 75.6035 20.5865 81.2647 23.5973 87.5217C23.5973 87.5217 20.3858 84.9547 19.293 82.8003C19.293 82.8003 18.5124 68.7047 1.33964 61.1641C1.33964 61.1641 -1.64885 79.9353 17.6649 84.3588L21.4786 88.6677C21.4786 88.6677 13.985 84.9777 5.06412 87.6363C5.06412 87.6363 13.5613 99.6692 29.6858 95.9562C29.6858 95.9562 33.1873 96.6667 35.5959 98.6378C35.5959 98.6378 26.5858 97.721 20.3858 102.236C20.3858 102.236 31.1801 113.765 44.4053 103.886C44.4053 103.886 48.5089 106.041 53.3039 111.702C53.3039 111.702 53.906 110.785 55.1104 109.846C55.1104 109.868 51.6089 104.001 37.1124 96.6896ZM6.78139 69.759C12.7361 75.3743 16.126 80.9896 16.1929 81.0584C9.8368 77.3912 6.84829 69.8736 6.78139 69.759ZM13.3829 90.2263C20.4973 90.1346 27.5002 94.6498 27.5002 94.6498C21.5009 94.1226 13.3829 90.2263 13.3829 90.2263ZM25.4038 82.7086C27.2995 84.8401 30.7563 92.9537 30.8009 93.0912C25.8052 88.3698 25.4038 82.7086 25.4038 82.7086ZM28.147 102.878C32.6966 101.457 42.2197 102.557 42.2197 102.557C33.0088 105.33 28.147 102.878 28.147 102.878Z" fill="url(#paint6_linear_4002_4)" stroke="white" stroke-miterlimit="10"/>
<path d="M53.3262 112L53.1701 111.817C48.8435 106.728 45.0521 104.459 44.4053 104.093C41.3945 106.316 38.2499 107.622 35.083 107.966C32.5182 108.241 29.9312 107.897 27.3664 106.935C23.0175 105.285 20.2743 102.397 20.252 102.374L20.1182 102.213L20.2966 102.099C23.5304 99.738 27.5225 98.867 30.3103 98.5691C32.4067 98.3399 34.1463 98.3857 35.0161 98.4316C32.8528 96.8959 30.0427 96.2542 29.7081 96.1625C26.0283 97.0105 22.4376 97.0793 19.0254 96.4146C16.3045 95.8646 13.6728 94.8332 11.2642 93.3663C7.13826 90.8222 4.97494 87.7968 4.95264 87.7739L4.79652 87.5676L5.04184 87.4989C9.68071 86.1008 13.9181 86.4675 16.6613 87.0176C18.557 87.3843 20.0066 87.9114 20.8318 88.2323L17.5757 84.5651C13.1599 83.5567 9.54691 81.7002 6.84833 79.0415C4.66271 76.91 3.07924 74.2742 2.09794 71.203C0.425274 65.9773 1.16126 61.2329 1.16126 61.1871L1.20585 60.9579L1.40658 61.0496C5.33177 62.7915 8.74402 65.0147 11.5095 67.6504C13.7174 69.782 15.5462 72.1656 16.9066 74.7785C19.1146 78.9728 19.4268 82.3878 19.4714 82.8003C20.2743 84.336 22.1477 86.1008 23.1067 86.9259C21.8354 83.9234 21.6793 81.1272 21.7908 79.2478C21.9247 77.0475 22.4153 75.6494 22.4376 75.5806L22.5268 75.3515L22.7052 75.489C25.2031 77.3225 27.3664 79.477 29.106 81.8836C30.511 83.8088 31.6484 85.8945 32.4959 88.0948C33.8118 91.4869 34.0348 94.0768 34.0571 94.5811C34.7931 95.1999 37.0456 96.5063 37.1794 96.5751C44.6953 100.357 49.2003 103.749 51.6535 105.926C54.3298 108.287 55.2219 109.754 55.2442 109.823L55.3334 109.96L55.1996 110.052C54.0399 110.946 53.4377 111.84 53.4377 111.862L53.3262 112ZM44.383 103.68L44.4722 103.726C44.5168 103.749 48.5758 105.926 53.2816 111.404C53.5046 111.106 54.0399 110.464 54.8651 109.8C54.5751 109.387 53.5938 108.058 51.4082 106.11C48.955 103.955 44.4945 100.586 37.0233 96.8272C36.9118 96.7584 34.5031 95.3832 33.7894 94.7415L33.7225 94.6957V94.6269C33.7225 94.604 33.611 91.8536 32.1614 88.1636C30.8456 84.8173 28.147 79.9583 22.6829 75.8786C22.5491 76.3599 22.2369 77.5747 22.1477 79.2249C22.0362 81.196 22.2146 84.2443 23.7534 87.4301L24.088 88.1406L23.4858 87.6593C23.352 87.5447 20.252 85.0465 19.1369 82.8691L19.1146 82.8233V82.7774C19.1146 82.7316 18.8915 79.2249 16.5944 74.8472C14.4757 70.8363 10.1491 65.2668 1.49579 61.3934C1.38428 62.4018 1.00513 66.5274 2.43248 71.0196C3.94903 75.764 7.80732 81.8836 17.7095 84.1297L17.7541 84.1526L22.2146 89.1949L21.3894 88.7824C21.3671 88.7824 19.4937 87.8656 16.5498 87.2697C13.8958 86.7425 9.81453 86.3987 5.35408 87.6822C5.91164 88.3927 7.98575 90.8681 11.4203 92.9767C15.1671 95.2687 21.3671 97.6294 29.6189 95.727H29.6635H29.7081C29.842 95.75 33.2765 96.4834 35.6851 98.4316L36.1535 98.8212L35.5513 98.7524C35.529 98.7524 33.2765 98.5232 30.3103 98.867C27.6117 99.165 23.7757 99.9901 20.6534 102.213C21.2779 102.832 23.798 105.147 27.5002 106.545C31.4254 108.035 37.5362 108.745 44.2715 103.68H44.383ZM33.9456 104.07C33.0758 104.07 32.3398 104.024 31.7153 103.955C29.3513 103.68 28.1247 103.084 28.0801 103.061L27.6786 102.855L28.1024 102.718C32.6297 101.297 41.8406 102.351 42.242 102.397L43.1118 102.488L42.2643 102.74C38.8521 103.749 36.0643 104.07 33.9456 104.07ZM28.7045 102.901C29.2621 103.107 30.288 103.405 31.7822 103.566C33.7894 103.795 37.001 103.795 41.2607 102.626C38.8521 102.42 32.429 101.961 28.7045 102.901ZM28.2139 94.879L27.5002 94.8103C21.5455 94.306 13.4052 90.4097 13.3383 90.3638L12.6469 90.02H13.4052C17.1074 89.9742 20.7649 91.1889 23.1959 92.1974C25.8275 93.2976 27.5894 94.4435 27.6117 94.4665L28.2139 94.879ZM14.2304 90.4097C16.2822 91.3265 21.9916 93.7559 26.6973 94.3748C25.9614 93.9393 24.6455 93.2517 23.0398 92.5641C20.8318 91.6244 17.5757 90.5243 14.2304 90.4097ZM31.2916 93.8247L30.6671 93.2517C28.0578 90.7764 26.7196 88.0719 26.0506 86.2154C25.3146 84.1984 25.2254 82.8003 25.2254 82.7545L25.1808 82.2274L25.5153 82.617C27.4333 84.8173 30.9125 92.9767 30.9571 93.0454L31.2916 93.8247ZM25.6491 83.3275C25.7383 83.9234 25.9614 84.909 26.3851 86.0779C26.9873 87.7281 28.1247 90.0659 30.2657 92.312C29.3959 90.3409 27.1657 85.4361 25.6491 83.3275ZM16.7059 81.5627L16.1038 81.2189C9.70302 77.5059 6.64761 69.8966 6.62531 69.8278L6.33537 69.0944L6.91524 69.6444C12.9368 75.3285 16.3268 80.9438 16.3491 80.9897L16.7059 81.5627ZM7.31667 70.5154C8.25337 72.4865 10.9742 77.5288 15.6354 80.5084C14.6095 78.9498 11.7548 74.8243 7.31667 70.5154Z" fill="url(#paint7_linear_4002_4)" stroke="white" stroke-miterlimit="10"/>
<path d="M66.9083 30.2684L60.909 11.1993L54.8428 30.2684L48.219 23.5759L53.2147 8.05926C53.2147 8.05926 47.5054 7.34876 46.9032 1.16045H69.4285C69.4285 1.16045 77.0112 1.06876 75.4278 10.9242C75.4278 10.9242 74.8256 10.42 74.7364 9.89284C74.7364 9.89284 73.7328 7.00497 70.6328 8.65518C70.6328 8.65518 69.2278 9.68656 69.6292 11.2222L73.3314 23.4613L66.9083 30.2684Z" fill="url(#paint8_linear_4002_4)" stroke="white" stroke-miterlimit="10"/>
<path d="M66.8414 30.6122L60.909 11.7952L54.9097 30.6122L47.996 23.6446L52.9694 8.21971C52.501 8.12803 51.3859 7.85299 50.1816 7.09664C48.7766 6.20277 47.037 4.46089 46.7248 1.20629L46.7025 1.00001H69.4285C69.54 1.00001 72.35 0.977092 74.2234 3.22322C75.6954 4.96512 76.1414 7.57795 75.6062 10.9701L75.5616 11.2909L75.3163 11.0847C75.294 11.0617 74.6695 10.5346 74.558 9.96159C74.5134 9.847 74.1119 8.88438 73.1975 8.49474C72.5062 8.21971 71.681 8.3343 70.722 8.81561C70.5882 8.90729 69.4507 9.82409 69.8076 11.1763L73.5321 23.5071L66.8414 30.6122ZM48.3974 23.553L54.7536 29.9476L60.909 10.6263L66.9975 29.9246L73.1306 23.4384L69.4508 11.2909C69.027 9.64073 70.4544 8.5635 70.5213 8.51766L70.5436 8.49474C71.5918 7.94467 72.5285 7.83007 73.3313 8.15095C74.4688 8.60934 74.8925 9.77824 74.8925 9.847V9.86992C74.9371 10.0991 75.1378 10.3742 75.294 10.5575C75.74 7.44044 75.294 5.05679 73.9558 3.45242C72.1939 1.34381 69.4508 1.3438 69.4285 1.3438H47.1039C47.3938 3.75037 48.4866 5.56102 50.36 6.75284C51.8097 7.66963 53.2147 7.85299 53.237 7.87591L53.46 7.89882L53.3931 8.10511L48.3974 23.553Z" fill="url(#paint9_linear_4002_4)" stroke="white" stroke-miterlimit="10"/>
<path d="M160.585 69.7372V98.4896H154.482V80.5123L149.047 98.4896H143.76L138.3 80.4556V98.4896H132.198V69.7372H139.659L146.478 89.7562L153.148 69.7372H160.585Z" fill="url(#paint10_linear_4002_4)" stroke="white" stroke-miterlimit="10"/>
<path d="M160.807 98.7731H154.26V82.0718L149.22 98.7731H143.612L138.547 82.0435V98.7731H132V69.5104H139.832L146.502 89.0756L153.025 69.5104H160.832V98.7731H160.807ZM154.705 98.2344H160.362V69.9924H153.321L146.502 90.4934L139.535 69.9924H132.469V98.2344H138.127V78.9244L143.982 98.2344H148.874L154.68 78.9527V98.2344H154.705Z" fill="url(#paint11_linear_4002_4)" stroke="white" stroke-miterlimit="10"/>
<path d="M180.424 93.2155H170.961L169.38 98.4896H162.957L172.197 69.7372H179.238L188.478 98.4896H181.98L180.424 93.2155ZM178.843 87.8847L175.705 77.2231L172.518 87.8847H178.843Z" fill="url(#paint12_linear_4002_4)" stroke="white" stroke-miterlimit="10"/>
<path d="M188.799 98.7731H181.807L180.226 93.499H171.085L169.504 98.7731H162.586L171.999 69.5104H179.337L188.799 98.7731ZM182.153 98.2344H188.157L179.09 69.9924H172.37L163.302 98.2344H169.232L170.813 92.9603H180.597L182.153 98.2344ZM179.164 88.1399H172.221L175.705 76.4291L179.164 88.1399ZM172.839 87.6295H178.521L175.705 78.0454L172.839 87.6295Z" fill="url(#paint13_linear_4002_4)" stroke="white" stroke-miterlimit="10"/>
<path d="M208.959 69.5388V75.0964H202.116V98.4896H195.989V75.0964H189.219V69.5388H208.959Z" fill="url(#paint14_linear_4002_4)" stroke="white" stroke-miterlimit="10"/>
<path d="M202.338 98.7731H195.741V75.3799H188.972V69.2835H209.206V75.3799H202.363V98.7731H202.338ZM196.211 98.2344H201.893V74.8412H208.737V69.7939H189.417V74.8412H196.186V98.2344H196.211Z" fill="url(#paint15_linear_4002_4)" stroke="white" stroke-miterlimit="10"/>
<path d="M224.499 98.4896L219.039 87.5444H217.656V98.4896H211.553V69.5388H221.979C223.98 69.5388 225.66 69.9357 227.044 70.7297C228.428 71.5236 229.465 72.6011 230.157 73.9905C230.849 75.38 231.195 76.9395 231.195 78.7259C231.195 80.8242 230.7 82.6106 229.688 84.0851C228.675 85.5596 227.217 86.5803 225.29 87.1191L231.293 98.5179H224.499V98.4896ZM217.631 82.7807H221.411C222.622 82.7807 223.511 82.4688 224.079 81.845C224.648 81.2212 224.944 80.3138 224.944 79.1229C224.944 77.9887 224.648 77.0813 224.079 76.4291C223.486 75.777 222.622 75.4367 221.411 75.4367H217.631V82.7807Z" fill="url(#paint16_linear_4002_4)" stroke="white" stroke-miterlimit="10"/>
<path d="M231.639 98.7731H224.351L218.891 87.828H217.853V98.7731H211.306V69.2835H221.955C223.98 69.2835 225.71 69.6805 227.118 70.5028C228.526 71.3251 229.613 72.431 230.33 73.8487C231.046 75.2665 231.392 76.9112 231.392 78.6975C231.392 80.8526 230.873 82.6957 229.836 84.2268C228.848 85.673 227.415 86.6937 225.611 87.2609L231.639 98.7731ZM224.623 98.2344H230.824L224.87 86.949L225.166 86.8639C227.044 86.3251 228.477 85.3327 229.44 83.9149C230.404 82.4971 230.898 80.7391 230.898 78.6975C230.898 76.9679 230.552 75.4367 229.885 74.104C229.218 72.7712 228.205 71.7221 226.871 70.9565C225.537 70.1909 223.857 69.7939 221.905 69.7939H211.702V98.2344H217.359V87.2892H219.113L224.623 98.2344ZM221.436 83.0359H217.433V75.1815H221.436C222.671 75.1815 223.635 75.5501 224.252 76.2306C224.87 76.9395 225.191 77.9036 225.191 79.1229C225.191 80.3989 224.87 81.3629 224.252 82.0435C223.635 82.6956 222.696 83.0359 221.436 83.0359ZM217.878 82.5255H221.436C222.572 82.5255 223.437 82.242 223.956 81.6749C224.475 81.1078 224.746 80.2571 224.746 79.1512C224.746 78.0737 224.475 77.2231 223.931 76.6276C223.388 76.0321 222.548 75.7202 221.436 75.7202H217.878V82.5255Z" fill="url(#paint17_linear_4002_4)" stroke="white" stroke-miterlimit="10"/>
<path d="M240.336 69.5388V98.4896H234.233V69.5388H240.336Z" fill="url(#paint18_linear_4002_4)" stroke="white" stroke-miterlimit="10"/>
<path d="M240.558 98.7731H234.011V69.2835H240.558V98.7731ZM234.456 98.2344H240.113V69.7939H234.456V98.2344Z" fill="url(#paint19_linear_4002_4)" stroke="white" stroke-miterlimit="10"/>
<path d="M259.854 98.4896L254.542 89.4726L249.971 98.4896H242.979L251.034 83.5747L242.708 69.5388H249.946L255.11 78.2722L259.582 69.5388H266.549L258.594 84.1134L267.092 98.4896H259.854Z" fill="url(#paint20_linear_4002_4)" stroke="white" stroke-miterlimit="10"/>
<path d="M267.537 98.7731H259.755L254.566 89.983L250.119 98.7731H242.584L250.786 83.603L242.312 69.2835H250.095L250.169 69.397L255.135 77.7902L259.483 69.2835H266.994L258.89 84.1134L267.537 98.7731ZM259.977 98.2344H266.672L258.346 84.1134L266.178 69.7939H259.755L255.184 78.7542L249.872 69.7939H243.177L251.33 83.5747L243.399 98.2344H249.848L254.542 88.9905L259.977 98.2344Z" fill="url(#paint21_linear_4002_4)" stroke="white" stroke-miterlimit="10"/>
<path d="M282.707 75.1248V81.1928H291.23V86.4669H282.707V92.9036H292.317V98.5179H276.604V69.5388H292.317V75.0964H282.707V75.1248Z" fill="url(#paint22_linear_4002_4)" stroke="white" stroke-miterlimit="10"/>
<path d="M292.54 98.7731H276.382V69.2835H292.54V75.3799H282.929V80.9092H291.452V86.7221H282.929V92.62H292.54V98.7731ZM276.827 98.2344H292.07V93.1304H282.46V86.1833H290.983V81.448H282.46V74.8696H292.07V69.8223H276.827V98.2344Z" fill="url(#paint23_linear_4002_4)" stroke="white" stroke-miterlimit="10"/>
<path d="M311.39 93.2155H301.928L300.347 98.4896H293.923L303.163 69.7372H310.204L319.444 98.4896H312.947L311.39 93.2155ZM309.834 87.8847L306.696 77.2231L303.509 87.8847H309.834Z" fill="url(#paint24_linear_4002_4)" stroke="white" stroke-miterlimit="10"/>
<path d="M319.79 98.7731H312.798L311.217 93.499H302.076L300.495 98.7731H293.577L302.99 69.5104H310.328L319.79 98.7731ZM313.12 98.2344H319.123L310.056 69.9924H303.336L294.269 98.2344H300.198L301.78 92.9603H311.563L313.12 98.2344ZM310.13 88.1399H303.188L306.671 76.4291L310.13 88.1399ZM303.83 87.6295H309.513L306.696 78.0454L303.83 87.6295Z" fill="url(#paint25_linear_4002_4)" stroke="white" stroke-miterlimit="10"/>
<path d="M341.457 71.9206C343.508 73.707 344.768 76.0889 345.287 79.1229H338.839C338.419 78.0738 337.752 77.2514 336.887 76.656C335.997 76.0321 334.96 75.7203 333.7 75.7203C331.773 75.7203 330.216 76.4575 329.055 77.9603C327.894 79.4631 327.301 81.4764 327.301 84C327.301 86.7505 327.919 88.8771 329.129 90.3516C330.364 91.8261 332.094 92.5633 334.367 92.5633C335.824 92.5633 337.084 92.1097 338.196 91.2023C339.283 90.2949 340.074 88.9906 340.519 87.2892H332.81V82.242H345.633V89.1607C345.163 90.862 344.397 92.4216 343.36 93.8677C342.322 95.3138 340.963 96.4764 339.333 97.3837C337.702 98.2911 335.849 98.7448 333.749 98.7448C331.204 98.7448 328.981 98.121 327.079 96.8734C325.176 95.6257 323.694 93.896 322.681 91.656C321.643 89.4159 321.124 86.8639 321.124 84C321.124 81.1361 321.643 78.5841 322.681 76.3441C323.719 74.104 325.176 72.3743 327.079 71.1267C328.981 69.879 331.18 69.2552 333.7 69.2552C336.788 69.2552 339.407 70.1342 341.457 71.9206Z" fill="url(#paint26_linear_4002_4)" stroke="white" stroke-miterlimit="10"/>
<path d="M333.7 99C331.13 99 328.833 98.3478 326.906 97.1002C324.979 95.8525 323.471 94.0378 322.409 91.7694C321.371 89.5009 320.828 86.8922 320.828 84C320.828 81.1078 321.371 78.4991 322.409 76.2306C323.471 73.9622 324.954 72.1758 326.881 70.8998C328.808 69.6522 331.056 69 333.626 69C336.837 69 339.506 69.9074 341.581 71.7221C343.656 73.5369 344.966 76.0038 345.485 79.0945L345.534 79.4064H338.666L338.616 79.2647C338.221 78.2722 337.579 77.4783 336.739 76.9112C335.899 76.3157 334.861 76.0321 333.675 76.0321C331.822 76.0321 330.315 76.741 329.203 78.1871C328.092 79.6333 327.523 81.5898 327.523 84.0567C327.523 86.7221 328.116 88.8204 329.302 90.2382C330.488 91.656 332.193 92.3648 334.367 92.3648C335.75 92.3648 337.01 91.9112 338.048 91.0321C339.012 90.2098 339.753 89.0472 340.197 87.6011H332.563V82.0435H345.83V89.3024C345.336 91.0321 344.57 92.62 343.508 94.0945C342.446 95.569 341.062 96.7599 339.407 97.6957C337.727 98.5463 335.824 99 333.7 99ZM333.626 69.5104C331.155 69.5104 328.956 70.1342 327.128 71.3535C325.275 72.5728 323.842 74.2741 322.829 76.4858C321.816 78.6692 321.297 81.2212 321.297 84.0283C321.297 86.8355 321.816 89.3875 322.829 91.5709C323.842 93.7542 325.3 95.4839 327.153 96.7032C329.006 97.9225 331.229 98.5463 333.724 98.5463C335.775 98.5463 337.628 98.0926 339.209 97.2136C340.79 96.3346 342.125 95.172 343.137 93.7543C344.15 92.3648 344.892 90.8053 345.361 89.1607V82.5539H333.008V87.0624H340.79L340.692 87.4026C340.222 89.1323 339.407 90.4934 338.295 91.4575C337.159 92.3932 335.824 92.8752 334.342 92.8752C332.02 92.8752 330.216 92.1096 328.956 90.5784C327.696 89.0472 327.054 86.8639 327.054 84.0567C327.054 81.4764 327.672 79.3781 328.857 77.8469C330.068 76.3157 331.674 75.5217 333.675 75.5217C334.96 75.5217 336.047 75.8337 336.961 76.4858C337.826 77.0813 338.493 77.9036 338.937 78.9244H344.99C344.472 76.1172 343.236 73.8488 341.309 72.1758C339.308 70.3894 336.739 69.5104 333.626 69.5104Z" fill="url(#paint27_linear_4002_4)" stroke="white" stroke-miterlimit="10"/>
<path d="M355.12 93.1304H363.248V98.4896H349.018V69.5388H355.12V93.1304Z" fill="url(#paint28_linear_4002_4)" stroke="white" stroke-miterlimit="10"/>
<path d="M363.471 98.7731H348.77V69.2835H355.318V92.8752H363.446V98.7731H363.471ZM349.24 98.2344H363.026V93.3856H354.898V69.7939H349.24V98.2344Z" fill="url(#paint29_linear_4002_4)" stroke="white" stroke-miterlimit="10"/>
<path d="M372.167 75.1248V81.1928H380.691V86.4669H372.167V92.9036H381.778V98.5179H366.065V69.5388H381.778V75.0964H372.167V75.1248Z" fill="url(#paint30_linear_4002_4)" stroke="white" stroke-miterlimit="10"/>
<path d="M382 98.7731H365.842V69.2835H382V75.3799H372.389V80.9092H380.913V86.7221H372.389V92.62H382V98.7731ZM366.287 98.2344H381.531V93.1304H371.92V86.1833H380.444V81.448H371.92V74.8696H381.531V69.8223H366.287V98.2344Z" fill="url(#paint31_linear_4002_4)" stroke="white" stroke-miterlimit="10"/>
<defs>
<linearGradient id="paint0_linear_4002_4" x1="13.3497" y1="44.6215" x2="109.517" y2="44.6215" gradientUnits="userSpaceOnUse">
<stop stop-color="#2B3990"/>
<stop offset="0.0499936" stop-color="#2B3F94"/>
<stop offset="0.1135" stop-color="#2A4E9F"/>
<stop offset="0.1843" stop-color="#2968B2"/>
<stop offset="0.2599" stop-color="#288CCC"/>
<stop offset="0.3128" stop-color="#27AAE1"/>
<stop offset="0.4263" stop-color="#2A5AA8"/>
<stop offset="0.4804" stop-color="#2B3990"/>
<stop offset="0.5331" stop-color="#2B3F94"/>
<stop offset="0.6" stop-color="#2A4E9F"/>
<stop offset="0.6747" stop-color="#2968B2"/>
<stop offset="0.7543" stop-color="#288CCC"/>
<stop offset="0.8101" stop-color="#27AAE1"/>
<stop offset="0.9387" stop-color="#2A5AA8"/>
<stop offset="1" stop-color="#2B3990"/>
</linearGradient>
<linearGradient id="paint1_linear_4002_4" x1="13.173" y1="44.6658" x2="109.694" y2="44.6658" gradientUnits="userSpaceOnUse">
<stop stop-color="#505050"/>
<stop offset="0.0383346" stop-color="#555555"/>
<stop offset="0.08127" stop-color="#626262"/>
<stop offset="0.1264" stop-color="#797979"/>
<stop offset="0.1731" stop-color="#989898"/>
<stop offset="0.221" stop-color="#C0C0C0"/>
<stop offset="0.2692" stop-color="#F1F1F1"/>
<stop offset="0.2793" stop-color="#FCFCFC"/>
<stop offset="0.333" stop-color="#EDEDED"/>
<stop offset="0.545" stop-color="#B6B6B6"/>
<stop offset="0.6477" stop-color="#A0A0A0"/>
<stop offset="0.7302" stop-color="#989898"/>
<stop offset="0.8557" stop-color="#838383"/>
<stop offset="1" stop-color="#636363"/>
</linearGradient>
<linearGradient id="paint2_linear_4002_4" x1="43.1962" y1="81.4823" x2="78.6137" y2="81.4823" gradientUnits="userSpaceOnUse">
<stop stop-color="#505050"/>
<stop offset="0.0383346" stop-color="#555555"/>
<stop offset="0.08127" stop-color="#626262"/>
<stop offset="0.1264" stop-color="#797979"/>
<stop offset="0.1731" stop-color="#989898"/>
<stop offset="0.221" stop-color="#C0C0C0"/>
<stop offset="0.2692" stop-color="#F1F1F1"/>
<stop offset="0.2793" stop-color="#FCFCFC"/>
<stop offset="0.333" stop-color="#EDEDED"/>
<stop offset="0.545" stop-color="#B6B6B6"/>
<stop offset="0.6477" stop-color="#A0A0A0"/>
<stop offset="0.7302" stop-color="#989898"/>
<stop offset="0.8557" stop-color="#838383"/>
<stop offset="1" stop-color="#636363"/>
</linearGradient>
<linearGradient id="paint3_linear_4002_4" x1="42.9458" y1="81.4388" x2="78.8621" y2="81.4388" gradientUnits="userSpaceOnUse">
<stop stop-color="#505050"/>
<stop offset="0.0383346" stop-color="#555555"/>
<stop offset="0.08127" stop-color="#626262"/>
<stop offset="0.1264" stop-color="#797979"/>
<stop offset="0.1731" stop-color="#989898"/>
<stop offset="0.221" stop-color="#C0C0C0"/>
<stop offset="0.2692" stop-color="#F1F1F1"/>
<stop offset="0.2793" stop-color="#FCFCFC"/>
<stop offset="0.333" stop-color="#EDEDED"/>
<stop offset="0.545" stop-color="#B6B6B6"/>
<stop offset="0.6477" stop-color="#A0A0A0"/>
<stop offset="0.7302" stop-color="#989898"/>
<stop offset="0.8557" stop-color="#838383"/>
<stop offset="1" stop-color="#636363"/>
</linearGradient>
<linearGradient id="paint4_linear_4002_4" x1="67.9085" y1="86.4433" x2="121.847" y2="86.4433" gradientUnits="userSpaceOnUse">
<stop stop-color="#505050"/>
<stop offset="0.0383346" stop-color="#555555"/>
<stop offset="0.08127" stop-color="#626262"/>
<stop offset="0.1264" stop-color="#797979"/>
<stop offset="0.1731" stop-color="#989898"/>
<stop offset="0.221" stop-color="#C0C0C0"/>
<stop offset="0.2692" stop-color="#F1F1F1"/>
<stop offset="0.2793" stop-color="#FCFCFC"/>
<stop offset="0.333" stop-color="#EDEDED"/>
<stop offset="0.545" stop-color="#B6B6B6"/>
<stop offset="0.6477" stop-color="#A0A0A0"/>
<stop offset="0.7302" stop-color="#989898"/>
<stop offset="0.8557" stop-color="#838383"/>
<stop offset="1" stop-color="#636363"/>
</linearGradient>
<linearGradient id="paint5_linear_4002_4" x1="67.6738" y1="86.4634" x2="122.019" y2="86.4634" gradientUnits="userSpaceOnUse">
<stop stop-color="#505050"/>
<stop offset="0.0383346" stop-color="#555555"/>
<stop offset="0.08127" stop-color="#626262"/>
<stop offset="0.1264" stop-color="#797979"/>
<stop offset="0.1731" stop-color="#989898"/>
<stop offset="0.221" stop-color="#C0C0C0"/>
<stop offset="0.2692" stop-color="#F1F1F1"/>
<stop offset="0.2793" stop-color="#FCFCFC"/>
<stop offset="0.333" stop-color="#EDEDED"/>
<stop offset="0.545" stop-color="#B6B6B6"/>
<stop offset="0.6477" stop-color="#A0A0A0"/>
<stop offset="0.7302" stop-color="#989898"/>
<stop offset="0.8557" stop-color="#838383"/>
<stop offset="1" stop-color="#636363"/>
</linearGradient>
<linearGradient id="paint6_linear_4002_4" x1="1.17505" y1="86.4433" x2="55.1141" y2="86.4433" gradientUnits="userSpaceOnUse">
<stop stop-color="#505050"/>
<stop offset="0.0383346" stop-color="#555555"/>
<stop offset="0.08127" stop-color="#626262"/>
<stop offset="0.1264" stop-color="#797979"/>
<stop offset="0.1731" stop-color="#989898"/>
<stop offset="0.221" stop-color="#C0C0C0"/>
<stop offset="0.2692" stop-color="#F1F1F1"/>
<stop offset="0.2793" stop-color="#FCFCFC"/>
<stop offset="0.333" stop-color="#EDEDED"/>
<stop offset="0.545" stop-color="#B6B6B6"/>
<stop offset="0.6477" stop-color="#A0A0A0"/>
<stop offset="0.7302" stop-color="#989898"/>
<stop offset="0.8557" stop-color="#838383"/>
<stop offset="1" stop-color="#636363"/>
</linearGradient>
<linearGradient id="paint7_linear_4002_4" x1="1.00271" y1="86.4632" x2="55.3489" y2="86.4632" gradientUnits="userSpaceOnUse">
<stop stop-color="#505050"/>
<stop offset="0.0383346" stop-color="#555555"/>
<stop offset="0.08127" stop-color="#626262"/>
<stop offset="0.1264" stop-color="#797979"/>
<stop offset="0.1731" stop-color="#989898"/>
<stop offset="0.221" stop-color="#C0C0C0"/>
<stop offset="0.2692" stop-color="#F1F1F1"/>
<stop offset="0.2793" stop-color="#FCFCFC"/>
<stop offset="0.333" stop-color="#EDEDED"/>
<stop offset="0.545" stop-color="#B6B6B6"/>
<stop offset="0.6477" stop-color="#A0A0A0"/>
<stop offset="0.7302" stop-color="#989898"/>
<stop offset="0.8557" stop-color="#838383"/>
<stop offset="1" stop-color="#636363"/>
</linearGradient>
<linearGradient id="paint8_linear_4002_4" x1="46.8981" y1="15.7292" x2="75.6339" y2="15.7292" gradientUnits="userSpaceOnUse">
<stop stop-color="#505050"/>
<stop offset="0.0383346" stop-color="#555555"/>
<stop offset="0.08127" stop-color="#626262"/>
<stop offset="0.1264" stop-color="#797979"/>
<stop offset="0.1731" stop-color="#989898"/>
<stop offset="0.221" stop-color="#C0C0C0"/>
<stop offset="0.2692" stop-color="#F1F1F1"/>
<stop offset="0.2793" stop-color="#FCFCFC"/>
<stop offset="0.333" stop-color="#EDEDED"/>
<stop offset="0.545" stop-color="#B6B6B6"/>
<stop offset="0.6477" stop-color="#A0A0A0"/>
<stop offset="0.7302" stop-color="#989898"/>
<stop offset="0.8557" stop-color="#838383"/>
<stop offset="1" stop-color="#636363"/>
</linearGradient>
<linearGradient id="paint9_linear_4002_4" x1="46.7029" y1="15.81" x2="75.8112" y2="15.81" gradientUnits="userSpaceOnUse">
<stop stop-color="#505050"/>
<stop offset="0.0383346" stop-color="#555555"/>
<stop offset="0.08127" stop-color="#626262"/>
<stop offset="0.1264" stop-color="#797979"/>
<stop offset="0.1731" stop-color="#989898"/>
<stop offset="0.221" stop-color="#C0C0C0"/>
<stop offset="0.2692" stop-color="#F1F1F1"/>
<stop offset="0.2793" stop-color="#FCFCFC"/>
<stop offset="0.333" stop-color="#EDEDED"/>
<stop offset="0.545" stop-color="#B6B6B6"/>
<stop offset="0.6477" stop-color="#A0A0A0"/>
<stop offset="0.7302" stop-color="#989898"/>
<stop offset="0.8557" stop-color="#838383"/>
<stop offset="1" stop-color="#636363"/>
</linearGradient>
<linearGradient id="paint10_linear_4002_4" x1="146.086" y1="92.2245" x2="147.579" y2="61.783" gradientUnits="userSpaceOnUse">
<stop stop-color="#505050"/>
<stop offset="0.0383346" stop-color="#555555"/>
<stop offset="0.08127" stop-color="#626262"/>
<stop offset="0.1264" stop-color="#797979"/>
<stop offset="0.1731" stop-color="#989898"/>
<stop offset="0.221" stop-color="#C0C0C0"/>
<stop offset="0.2692" stop-color="#F1F1F1"/>
<stop offset="0.2793" stop-color="#FCFCFC"/>
<stop offset="0.333" stop-color="#EDEDED"/>
<stop offset="0.545" stop-color="#B6B6B6"/>
<stop offset="0.6477" stop-color="#A0A0A0"/>
<stop offset="0.7302" stop-color="#989898"/>
<stop offset="0.8557" stop-color="#838383"/>
<stop offset="1" stop-color="#636363"/>
</linearGradient>
<linearGradient id="paint11_linear_4002_4" x1="131.974" y1="84.1247" x2="160.801" y2="84.1247" gradientUnits="userSpaceOnUse">
<stop stop-color="#505050"/>
<stop offset="0.0383346" stop-color="#555555"/>
<stop offset="0.08127" stop-color="#626262"/>
<stop offset="0.1264" stop-color="#797979"/>
<stop offset="0.1731" stop-color="#989898"/>
<stop offset="0.221" stop-color="#C0C0C0"/>
<stop offset="0.2692" stop-color="#F1F1F1"/>
<stop offset="0.2793" stop-color="#FCFCFC"/>
<stop offset="0.333" stop-color="#EDEDED"/>
<stop offset="0.545" stop-color="#B6B6B6"/>
<stop offset="0.6477" stop-color="#A0A0A0"/>
<stop offset="0.7302" stop-color="#989898"/>
<stop offset="0.8557" stop-color="#838383"/>
<stop offset="1" stop-color="#636363"/>
</linearGradient>
<linearGradient id="paint12_linear_4002_4" x1="175.903" y1="93.6869" x2="177.396" y2="63.2455" gradientUnits="userSpaceOnUse">
<stop stop-color="#505050"/>
<stop offset="0.0383346" stop-color="#555555"/>
<stop offset="0.08127" stop-color="#626262"/>
<stop offset="0.1264" stop-color="#797979"/>
<stop offset="0.1731" stop-color="#989898"/>
<stop offset="0.221" stop-color="#C0C0C0"/>
<stop offset="0.2692" stop-color="#F1F1F1"/>
<stop offset="0.2793" stop-color="#FCFCFC"/>
<stop offset="0.333" stop-color="#EDEDED"/>
<stop offset="0.545" stop-color="#B6B6B6"/>
<stop offset="0.6477" stop-color="#A0A0A0"/>
<stop offset="0.7302" stop-color="#989898"/>
<stop offset="0.8557" stop-color="#838383"/>
<stop offset="1" stop-color="#636363"/>
</linearGradient>
<linearGradient id="paint13_linear_4002_4" x1="162.64" y1="84.1247" x2="188.808" y2="84.1247" gradientUnits="userSpaceOnUse">
<stop stop-color="#505050"/>
<stop offset="0.0383346" stop-color="#555555"/>
<stop offset="0.08127" stop-color="#626262"/>
<stop offset="0.1264" stop-color="#797979"/>
<stop offset="0.1731" stop-color="#989898"/>
<stop offset="0.221" stop-color="#C0C0C0"/>
<stop offset="0.2692" stop-color="#F1F1F1"/>
<stop offset="0.2793" stop-color="#FCFCFC"/>
<stop offset="0.333" stop-color="#EDEDED"/>
<stop offset="0.545" stop-color="#B6B6B6"/>
<stop offset="0.6477" stop-color="#A0A0A0"/>
<stop offset="0.7302" stop-color="#989898"/>
<stop offset="0.8557" stop-color="#838383"/>
<stop offset="1" stop-color="#636363"/>
</linearGradient>
<linearGradient id="paint14_linear_4002_4" x1="198.247" y1="94.7828" x2="199.74" y2="64.3414" gradientUnits="userSpaceOnUse">
<stop stop-color="#505050"/>
<stop offset="0.0383346" stop-color="#555555"/>
<stop offset="0.08127" stop-color="#626262"/>
<stop offset="0.1264" stop-color="#797979"/>
<stop offset="0.1731" stop-color="#989898"/>
<stop offset="0.221" stop-color="#C0C0C0"/>
<stop offset="0.2692" stop-color="#F1F1F1"/>
<stop offset="0.2793" stop-color="#FCFCFC"/>
<stop offset="0.333" stop-color="#EDEDED"/>
<stop offset="0.545" stop-color="#B6B6B6"/>
<stop offset="0.6477" stop-color="#A0A0A0"/>
<stop offset="0.7302" stop-color="#989898"/>
<stop offset="0.8557" stop-color="#838383"/>
<stop offset="1" stop-color="#636363"/>
</linearGradient>
<linearGradient id="paint15_linear_4002_4" x1="188.97" y1="84.0224" x2="209.195" y2="84.0224" gradientUnits="userSpaceOnUse">
<stop stop-color="#505050"/>
<stop offset="0.0383346" stop-color="#555555"/>
<stop offset="0.08127" stop-color="#626262"/>
<stop offset="0.1264" stop-color="#797979"/>
<stop offset="0.1731" stop-color="#989898"/>
<stop offset="0.221" stop-color="#C0C0C0"/>
<stop offset="0.2692" stop-color="#F1F1F1"/>
<stop offset="0.2793" stop-color="#FCFCFC"/>
<stop offset="0.333" stop-color="#EDEDED"/>
<stop offset="0.545" stop-color="#B6B6B6"/>
<stop offset="0.6477" stop-color="#A0A0A0"/>
<stop offset="0.7302" stop-color="#989898"/>
<stop offset="0.8557" stop-color="#838383"/>
<stop offset="1" stop-color="#636363"/>
</linearGradient>
<linearGradient id="paint16_linear_4002_4" x1="220.946" y1="95.8961" x2="222.439" y2="65.4548" gradientUnits="userSpaceOnUse">
<stop stop-color="#505050"/>
<stop offset="0.0383346" stop-color="#555555"/>
<stop offset="0.08127" stop-color="#626262"/>
<stop offset="0.1264" stop-color="#797979"/>
<stop offset="0.1731" stop-color="#989898"/>
<stop offset="0.221" stop-color="#C0C0C0"/>
<stop offset="0.2692" stop-color="#F1F1F1"/>
<stop offset="0.2793" stop-color="#FCFCFC"/>
<stop offset="0.333" stop-color="#EDEDED"/>
<stop offset="0.545" stop-color="#B6B6B6"/>
<stop offset="0.6477" stop-color="#A0A0A0"/>
<stop offset="0.7302" stop-color="#989898"/>
<stop offset="0.8557" stop-color="#838383"/>
<stop offset="1" stop-color="#636363"/>
</linearGradient>
<linearGradient id="paint17_linear_4002_4" x1="211.311" y1="84.0224" x2="231.64" y2="84.0224" gradientUnits="userSpaceOnUse">
<stop stop-color="#505050"/>
<stop offset="0.0383346" stop-color="#555555"/>
<stop offset="0.08127" stop-color="#626262"/>
<stop offset="0.1264" stop-color="#797979"/>
<stop offset="0.1731" stop-color="#989898"/>
<stop offset="0.221" stop-color="#C0C0C0"/>
<stop offset="0.2692" stop-color="#F1F1F1"/>
<stop offset="0.2793" stop-color="#FCFCFC"/>
<stop offset="0.333" stop-color="#EDEDED"/>
<stop offset="0.545" stop-color="#B6B6B6"/>
<stop offset="0.6477" stop-color="#A0A0A0"/>
<stop offset="0.7302" stop-color="#989898"/>
<stop offset="0.8557" stop-color="#838383"/>
<stop offset="1" stop-color="#636363"/>
</linearGradient>
<linearGradient id="paint18_linear_4002_4" x1="236.816" y1="96.6745" x2="238.309" y2="66.2332" gradientUnits="userSpaceOnUse">
<stop stop-color="#505050"/>
<stop offset="0.0383346" stop-color="#555555"/>
<stop offset="0.08127" stop-color="#626262"/>
<stop offset="0.1264" stop-color="#797979"/>
<stop offset="0.1731" stop-color="#989898"/>
<stop offset="0.221" stop-color="#C0C0C0"/>
<stop offset="0.2692" stop-color="#F1F1F1"/>
<stop offset="0.2793" stop-color="#FCFCFC"/>
<stop offset="0.333" stop-color="#EDEDED"/>
<stop offset="0.545" stop-color="#B6B6B6"/>
<stop offset="0.6477" stop-color="#A0A0A0"/>
<stop offset="0.7302" stop-color="#989898"/>
<stop offset="0.8557" stop-color="#838383"/>
<stop offset="1" stop-color="#636363"/>
</linearGradient>
<linearGradient id="paint19_linear_4002_4" x1="234.009" y1="84.0224" x2="240.565" y2="84.0224" gradientUnits="userSpaceOnUse">
<stop stop-color="#505050"/>
<stop offset="0.0383346" stop-color="#555555"/>
<stop offset="0.08127" stop-color="#626262"/>
<stop offset="0.1264" stop-color="#797979"/>
<stop offset="0.1731" stop-color="#989898"/>
<stop offset="0.221" stop-color="#C0C0C0"/>
<stop offset="0.2692" stop-color="#F1F1F1"/>
<stop offset="0.2793" stop-color="#FCFCFC"/>
<stop offset="0.333" stop-color="#EDEDED"/>
<stop offset="0.545" stop-color="#B6B6B6"/>
<stop offset="0.6477" stop-color="#A0A0A0"/>
<stop offset="0.7302" stop-color="#989898"/>
<stop offset="0.8557" stop-color="#838383"/>
<stop offset="1" stop-color="#636363"/>
</linearGradient>
<linearGradient id="paint20_linear_4002_4" x1="254.414" y1="97.5377" x2="255.907" y2="67.0963" gradientUnits="userSpaceOnUse">
<stop stop-color="#505050"/>
<stop offset="0.0383346" stop-color="#555555"/>
<stop offset="0.08127" stop-color="#626262"/>
<stop offset="0.1264" stop-color="#797979"/>
<stop offset="0.1731" stop-color="#989898"/>
<stop offset="0.221" stop-color="#C0C0C0"/>
<stop offset="0.2692" stop-color="#F1F1F1"/>
<stop offset="0.2793" stop-color="#FCFCFC"/>
<stop offset="0.333" stop-color="#EDEDED"/>
<stop offset="0.545" stop-color="#B6B6B6"/>
<stop offset="0.6477" stop-color="#A0A0A0"/>
<stop offset="0.7302" stop-color="#989898"/>
<stop offset="0.8557" stop-color="#838383"/>
<stop offset="1" stop-color="#636363"/>
</linearGradient>
<linearGradient id="paint21_linear_4002_4" x1="242.301" y1="84.0224" x2="267.533" y2="84.0224" gradientUnits="userSpaceOnUse">
<stop stop-color="#505050"/>
<stop offset="0.0383346" stop-color="#555555"/>
<stop offset="0.08127" stop-color="#626262"/>
<stop offset="0.1264" stop-color="#797979"/>
<stop offset="0.1731" stop-color="#989898"/>
<stop offset="0.221" stop-color="#C0C0C0"/>
<stop offset="0.2692" stop-color="#F1F1F1"/>
<stop offset="0.2793" stop-color="#FCFCFC"/>
<stop offset="0.333" stop-color="#EDEDED"/>
<stop offset="0.545" stop-color="#B6B6B6"/>
<stop offset="0.6477" stop-color="#A0A0A0"/>
<stop offset="0.7302" stop-color="#989898"/>
<stop offset="0.8557" stop-color="#838383"/>
<stop offset="1" stop-color="#636363"/>
</linearGradient>
<linearGradient id="paint22_linear_4002_4" x1="283.893" y1="98.9835" x2="285.386" y2="68.5421" gradientUnits="userSpaceOnUse">
<stop stop-color="#505050"/>
<stop offset="0.0383346" stop-color="#555555"/>
<stop offset="0.08127" stop-color="#626262"/>
<stop offset="0.1264" stop-color="#797979"/>
<stop offset="0.1731" stop-color="#989898"/>
<stop offset="0.221" stop-color="#C0C0C0"/>
<stop offset="0.2692" stop-color="#F1F1F1"/>
<stop offset="0.2793" stop-color="#FCFCFC"/>
<stop offset="0.333" stop-color="#EDEDED"/>
<stop offset="0.545" stop-color="#B6B6B6"/>
<stop offset="0.6477" stop-color="#A0A0A0"/>
<stop offset="0.7302" stop-color="#989898"/>
<stop offset="0.8557" stop-color="#838383"/>
<stop offset="1" stop-color="#636363"/>
</linearGradient>
<linearGradient id="paint23_linear_4002_4" x1="276.372" y1="84.0224" x2="292.529" y2="84.0224" gradientUnits="userSpaceOnUse">
<stop stop-color="#505050"/>
<stop offset="0.0383346" stop-color="#555555"/>
<stop offset="0.08127" stop-color="#626262"/>
<stop offset="0.1264" stop-color="#797979"/>
<stop offset="0.1731" stop-color="#989898"/>
<stop offset="0.221" stop-color="#C0C0C0"/>
<stop offset="0.2692" stop-color="#F1F1F1"/>
<stop offset="0.2793" stop-color="#FCFCFC"/>
<stop offset="0.333" stop-color="#EDEDED"/>
<stop offset="0.545" stop-color="#B6B6B6"/>
<stop offset="0.6477" stop-color="#A0A0A0"/>
<stop offset="0.7302" stop-color="#989898"/>
<stop offset="0.8557" stop-color="#838383"/>
<stop offset="1" stop-color="#636363"/>
</linearGradient>
<linearGradient id="paint24_linear_4002_4" x1="306.643" y1="100.099" x2="308.136" y2="69.658" gradientUnits="userSpaceOnUse">
<stop stop-color="#505050"/>
<stop offset="0.0383346" stop-color="#555555"/>
<stop offset="0.08127" stop-color="#626262"/>
<stop offset="0.1264" stop-color="#797979"/>
<stop offset="0.1731" stop-color="#989898"/>
<stop offset="0.221" stop-color="#C0C0C0"/>
<stop offset="0.2692" stop-color="#F1F1F1"/>
<stop offset="0.2793" stop-color="#FCFCFC"/>
<stop offset="0.333" stop-color="#EDEDED"/>
<stop offset="0.545" stop-color="#B6B6B6"/>
<stop offset="0.6477" stop-color="#A0A0A0"/>
<stop offset="0.7302" stop-color="#989898"/>
<stop offset="0.8557" stop-color="#838383"/>
<stop offset="1" stop-color="#636363"/>
</linearGradient>
<linearGradient id="paint25_linear_4002_4" x1="293.618" y1="84.1247" x2="319.787" y2="84.1247" gradientUnits="userSpaceOnUse">
<stop stop-color="#505050"/>
<stop offset="0.0383346" stop-color="#555555"/>
<stop offset="0.08127" stop-color="#626262"/>
<stop offset="0.1264" stop-color="#797979"/>
<stop offset="0.1731" stop-color="#989898"/>
<stop offset="0.221" stop-color="#C0C0C0"/>
<stop offset="0.2692" stop-color="#F1F1F1"/>
<stop offset="0.2793" stop-color="#FCFCFC"/>
<stop offset="0.333" stop-color="#EDEDED"/>
<stop offset="0.545" stop-color="#B6B6B6"/>
<stop offset="0.6477" stop-color="#A0A0A0"/>
<stop offset="0.7302" stop-color="#989898"/>
<stop offset="0.8557" stop-color="#838383"/>
<stop offset="1" stop-color="#636363"/>
</linearGradient>
<linearGradient id="paint26_linear_4002_4" x1="332.767" y1="101.381" x2="334.26" y2="70.9393" gradientUnits="userSpaceOnUse">
<stop stop-color="#505050"/>
<stop offset="0.0383346" stop-color="#555555"/>
<stop offset="0.08127" stop-color="#626262"/>
<stop offset="0.1264" stop-color="#797979"/>
<stop offset="0.1731" stop-color="#989898"/>
<stop offset="0.221" stop-color="#C0C0C0"/>
<stop offset="0.2692" stop-color="#F1F1F1"/>
<stop offset="0.2793" stop-color="#FCFCFC"/>
<stop offset="0.333" stop-color="#EDEDED"/>
<stop offset="0.545" stop-color="#B6B6B6"/>
<stop offset="0.6477" stop-color="#A0A0A0"/>
<stop offset="0.7302" stop-color="#989898"/>
<stop offset="0.8557" stop-color="#838383"/>
<stop offset="1" stop-color="#636363"/>
</linearGradient>
<linearGradient id="paint27_linear_4002_4" x1="320.84" y1="84.0019" x2="345.812" y2="84.0019" gradientUnits="userSpaceOnUse">
<stop stop-color="#505050"/>
<stop offset="0.0383346" stop-color="#555555"/>
<stop offset="0.08127" stop-color="#626262"/>
<stop offset="0.1264" stop-color="#797979"/>
<stop offset="0.1731" stop-color="#989898"/>
<stop offset="0.221" stop-color="#C0C0C0"/>
<stop offset="0.2692" stop-color="#F1F1F1"/>
<stop offset="0.2793" stop-color="#FCFCFC"/>
<stop offset="0.333" stop-color="#EDEDED"/>
<stop offset="0.545" stop-color="#B6B6B6"/>
<stop offset="0.6477" stop-color="#A0A0A0"/>
<stop offset="0.7302" stop-color="#989898"/>
<stop offset="0.8557" stop-color="#838383"/>
<stop offset="1" stop-color="#636363"/>
</linearGradient>
<linearGradient id="paint28_linear_4002_4" x1="355.444" y1="102.493" x2="356.937" y2="72.0516" gradientUnits="userSpaceOnUse">
<stop stop-color="#505050"/>
<stop offset="0.0383346" stop-color="#555555"/>
<stop offset="0.08127" stop-color="#626262"/>
<stop offset="0.1264" stop-color="#797979"/>
<stop offset="0.1731" stop-color="#989898"/>
<stop offset="0.221" stop-color="#C0C0C0"/>
<stop offset="0.2692" stop-color="#F1F1F1"/>
<stop offset="0.2793" stop-color="#FCFCFC"/>
<stop offset="0.333" stop-color="#EDEDED"/>
<stop offset="0.545" stop-color="#B6B6B6"/>
<stop offset="0.6477" stop-color="#A0A0A0"/>
<stop offset="0.7302" stop-color="#989898"/>
<stop offset="0.8557" stop-color="#838383"/>
<stop offset="1" stop-color="#636363"/>
</linearGradient>
<linearGradient id="paint29_linear_4002_4" x1="348.785" y1="84.0224" x2="363.478" y2="84.0224" gradientUnits="userSpaceOnUse">
<stop stop-color="#505050"/>
<stop offset="0.0383346" stop-color="#555555"/>
<stop offset="0.08127" stop-color="#626262"/>
<stop offset="0.1264" stop-color="#797979"/>
<stop offset="0.1731" stop-color="#989898"/>
<stop offset="0.221" stop-color="#C0C0C0"/>
<stop offset="0.2692" stop-color="#F1F1F1"/>
<stop offset="0.2793" stop-color="#FCFCFC"/>
<stop offset="0.333" stop-color="#EDEDED"/>
<stop offset="0.545" stop-color="#B6B6B6"/>
<stop offset="0.6477" stop-color="#A0A0A0"/>
<stop offset="0.7302" stop-color="#989898"/>
<stop offset="0.8557" stop-color="#838383"/>
<stop offset="1" stop-color="#636363"/>
</linearGradient>
<linearGradient id="paint30_linear_4002_4" x1="373.203" y1="103.364" x2="374.696" y2="72.9226" gradientUnits="userSpaceOnUse">
<stop stop-color="#505050"/>
<stop offset="0.0383346" stop-color="#555555"/>
<stop offset="0.08127" stop-color="#626262"/>
<stop offset="0.1264" stop-color="#797979"/>
<stop offset="0.1731" stop-color="#989898"/>
<stop offset="0.221" stop-color="#C0C0C0"/>
<stop offset="0.2692" stop-color="#F1F1F1"/>
<stop offset="0.2793" stop-color="#FCFCFC"/>
<stop offset="0.333" stop-color="#EDEDED"/>
<stop offset="0.545" stop-color="#B6B6B6"/>
<stop offset="0.6477" stop-color="#A0A0A0"/>
<stop offset="0.7302" stop-color="#989898"/>
<stop offset="0.8557" stop-color="#838383"/>
<stop offset="1" stop-color="#636363"/>
</linearGradient>
<linearGradient id="paint31_linear_4002_4" x1="365.844" y1="84.0224" x2="382.001" y2="84.0224" gradientUnits="userSpaceOnUse">
<stop stop-color="#505050"/>
<stop offset="0.0383346" stop-color="#555555"/>
<stop offset="0.08127" stop-color="#626262"/>
<stop offset="0.1264" stop-color="#797979"/>
<stop offset="0.1731" stop-color="#989898"/>
<stop offset="0.221" stop-color="#C0C0C0"/>
<stop offset="0.2692" stop-color="#F1F1F1"/>
<stop offset="0.2793" stop-color="#FCFCFC"/>
<stop offset="0.333" stop-color="#EDEDED"/>
<stop offset="0.545" stop-color="#B6B6B6"/>
<stop offset="0.6477" stop-color="#A0A0A0"/>
<stop offset="0.7302" stop-color="#989898"/>
<stop offset="0.8557" stop-color="#838383"/>
<stop offset="1" stop-color="#636363"/>
</linearGradient>
</defs>
</svg>
