<svg width="56" height="56" viewBox="0 0 56 56" fill="none" xmlns="http://www.w3.org/2000/svg">
<g clip-path="url(#clip0_81_21)">
<path d="M49 0H7C3.1395 0 0 3.1395 0 7V49C0 52.8605 3.1395 56 7 56H28V36.75H21V28H28V21C28 15.2005 32.7005 10.5 38.5 10.5H45.5V19.25H42C40.068 19.25 38.5 19.068 38.5 21V28H47.25L43.75 36.75H38.5V56H49C52.8605 56 56 52.8605 56 49V7C56 3.1395 52.8605 0 49 0Z" fill="#00D962"/>
</g>
<defs>
<clipPath id="clip0_81_21">
<rect width="56" height="56" fill="white"/>
</clipPath>
</defs>
</svg>
