<svg width="56" height="56" viewBox="0 0 56 56" fill="none" xmlns="http://www.w3.org/2000/svg">
<g clip-path="url(#clip0_81_16)">
<path d="M41.125 9.95312H14.875C12.1611 9.95312 9.95312 12.1611 9.95312 14.875V41.125C9.95312 43.8389 12.1611 46.0469 14.875 46.0469H41.125C43.8389 46.0469 46.0469 43.8389 46.0469 41.125V14.875C46.0469 12.1611 43.8389 9.95312 41.125 9.95312ZM28 39.4844C21.6682 39.4844 16.5156 34.3318 16.5156 28C16.5156 21.6682 21.6682 16.5156 28 16.5156C34.3318 16.5156 39.4844 21.6682 39.4844 28C39.4844 34.3318 34.3318 39.4844 28 39.4844ZM39.4844 19.7969C37.6754 19.7969 36.2031 18.3246 36.2031 16.5156C36.2031 14.7067 37.6754 13.2344 39.4844 13.2344C41.2933 13.2344 42.7656 14.7067 42.7656 16.5156C42.7656 18.3246 41.2933 19.7969 39.4844 19.7969Z" fill="#00D962"/>
<path d="M28 19.7969C23.4772 19.7969 19.7969 23.4772 19.7969 28C19.7969 32.5228 23.4772 36.2031 28 36.2031C32.5228 36.2031 36.2031 32.5228 36.2031 28C36.2031 23.4772 32.5228 19.7969 28 19.7969Z" fill="#00D962"/>
<path d="M47.6875 0H8.3125C3.78967 0 0 3.78967 0 8.3125V47.6875C0 52.2103 3.78967 56 8.3125 56H47.6875C52.2103 56 56 52.2103 56 47.6875V8.3125C56 3.78967 52.2103 0 47.6875 0ZM49.3281 41.125C49.3281 45.6478 45.6478 49.3281 41.125 49.3281H14.875C10.3522 49.3281 6.67188 45.6478 6.67188 41.125V14.875C6.67188 10.3522 10.3522 6.67188 14.875 6.67188H41.125C45.6478 6.67188 49.3281 10.3522 49.3281 14.875V41.125Z" fill="#00D962"/>
</g>
<defs>
<clipPath id="clip0_81_16">
<rect width="56" height="56" fill="white"/>
</clipPath>
</defs>
</svg>
