<svg width="56" height="56" viewBox="0 0 56 56" fill="none" xmlns="http://www.w3.org/2000/svg">
<path d="M27.582 12.9385C19.5073 12.9385 12.9375 19.5055 12.9375 27.5811C12.9375 35.6558 19.5073 42.2257 27.582 42.2257C35.6567 42.2257 42.2266 35.6558 42.2266 27.5811C42.2266 19.5055 35.6567 12.9385 27.582 12.9385ZM27.582 37.0578C22.358 37.0578 18.1073 32.8061 18.1073 27.5811C18.1073 22.3562 22.358 18.1064 27.582 18.1064C32.8061 18.1064 37.0568 22.3562 37.0568 27.5811C37.0568 32.8061 32.8061 37.0578 27.582 37.0578Z" fill="#00D962"/>
<path d="M42.7771 9.4248C41.1431 9.4248 39.8179 10.7509 39.8179 12.385C39.8179 14.0209 41.1431 15.3451 42.7771 15.3451C44.4111 15.3451 45.7363 14.0209 45.7363 12.385C45.7363 10.7509 44.4111 9.4248 42.7771 9.4248Z" fill="#00D962"/>
<mask id="mask0_151_11" style="mask-type:luminance" maskUnits="userSpaceOnUse" x="0" y="0" width="56" height="56">
<path d="M0 0H55.1641V55.1641H0V0Z" fill="white"/>
</mask>
<g mask="url(#mask0_151_11)">
<path d="M42.0291 0.000976562H13.135C5.89225 0.000976562 0 5.89136 0 13.1331V42.0282C0 49.27 5.89225 55.1622 13.135 55.1622H42.0291C49.2709 55.1622 55.1641 49.27 55.1641 42.0282V13.1331C55.1641 5.89136 49.2709 0.000976562 42.0291 0.000976562ZM49.9943 42.0282C49.9943 46.4202 46.4202 49.9953 42.0291 49.9953H13.135C8.74292 49.9953 5.16976 46.4202 5.16976 42.0282V13.1331C5.16976 8.74202 8.74292 5.16886 13.135 5.16886H42.0291C46.4202 5.16886 49.9943 8.74202 49.9943 13.1331V42.0282Z" fill="#00D962"/>
</g>
</svg>
