<svg width="56" height="56" viewBox="0 0 56 56" fill="none" xmlns="http://www.w3.org/2000/svg">
<g clip-path="url(#clip0_81_11)">
<path d="M48.3636 0H7.63636C5.61107 0 3.66874 0.804543 2.23664 2.23664C0.804543 3.66874 0 5.61107 0 7.63636L0 48.3636C0 50.3889 0.804543 52.3313 2.23664 53.7634C3.66874 55.1955 5.61107 56 7.63636 56H48.3636C50.3889 56 52.3313 55.1955 53.7634 53.7634C55.1955 52.3313 56 50.3889 56 48.3636V7.63636C56 5.61107 55.1955 3.66874 53.7634 2.23664C52.3313 0.804543 50.3889 0 48.3636 0ZM19.0909 44.3164C19.0913 44.4716 19.0611 44.6255 19.002 44.7691C18.9428 44.9127 18.8559 45.0432 18.7463 45.1531C18.6366 45.2631 18.5064 45.3503 18.3629 45.4098C18.2195 45.4694 18.0657 45.5 17.9105 45.5H12.88C12.7244 45.5004 12.5703 45.4701 12.4265 45.4108C12.2828 45.3514 12.1521 45.2642 12.0421 45.1543C11.9321 45.0443 11.8449 44.9136 11.7856 44.7698C11.7263 44.626 11.6959 44.4719 11.6964 44.3164V23.2273C11.6964 22.9134 11.8211 22.6123 12.043 22.3903C12.265 22.1683 12.5661 22.0436 12.88 22.0436H17.9105C18.2238 22.0445 18.5241 22.1696 18.7454 22.3914C18.9666 22.6133 19.0909 22.9139 19.0909 23.2273V44.3164ZM15.3936 20.0455C14.4497 20.0455 13.5269 19.7655 12.7421 19.2411C11.9572 18.7167 11.3454 17.9713 10.9842 17.0992C10.623 16.2271 10.5285 15.2674 10.7126 14.3416C10.8968 13.4158 11.3513 12.5654 12.0188 11.8979C12.6863 11.2304 13.5367 10.7759 14.4625 10.5917C15.3883 10.4075 16.348 10.5021 17.2201 10.8633C18.0922 11.2245 18.8376 11.8363 19.362 12.6211C19.8864 13.406 20.1664 14.3288 20.1664 15.2727C20.1664 16.5385 19.6635 17.7525 18.7685 18.6476C17.8734 19.5426 16.6594 20.0455 15.3936 20.0455ZM45.3855 44.3991C45.3859 44.5421 45.358 44.6838 45.3035 44.816C45.2489 44.9482 45.1688 45.0684 45.0677 45.1695C44.9665 45.2706 44.8464 45.3508 44.7142 45.4053C44.582 45.4598 44.4403 45.4877 44.2973 45.4873H38.8882C38.7452 45.4877 38.6035 45.4598 38.4713 45.4053C38.339 45.3508 38.2189 45.2706 38.1178 45.1695C38.0167 45.0684 37.9365 44.9482 37.882 44.816C37.8274 44.6838 37.7996 44.5421 37.8 44.3991V34.5195C37.8 33.0432 38.2327 28.0541 33.9405 28.0541C30.6155 28.0541 29.9377 31.4682 29.8041 33.0018V44.4118C29.8041 44.6977 29.6917 44.9721 29.491 45.1757C29.2904 45.3793 29.0177 45.4958 28.7318 45.5H23.5073C23.3645 45.5 23.2232 45.4718 23.0913 45.4171C22.9595 45.3624 22.8397 45.2822 22.7389 45.1811C22.6381 45.08 22.5583 44.96 22.5039 44.828C22.4496 44.696 22.4219 44.5546 22.4223 44.4118V23.135C22.4219 22.9922 22.4496 22.8508 22.5039 22.7188C22.5583 22.5868 22.6381 22.4668 22.7389 22.3657C22.8397 22.2646 22.9595 22.1844 23.0913 22.1297C23.2232 22.075 23.3645 22.0468 23.5073 22.0468H28.7318C29.0204 22.0468 29.2972 22.1615 29.5013 22.3655C29.7054 22.5696 29.82 22.8464 29.82 23.135V24.9741C31.0545 23.1191 32.8841 21.6936 36.7882 21.6936C45.4364 21.6936 45.3791 29.7691 45.3791 34.2045L45.3855 44.3991Z" fill="#00D962"/>
</g>
<defs>
<clipPath id="clip0_81_11">
<rect width="56" height="56" fill="white"/>
</clipPath>
</defs>
</svg>
