<svg width="56" height="56" viewBox="0 0 56 56" fill="none" xmlns="http://www.w3.org/2000/svg">
<g clip-path="url(#clip0_81_26)">
<path d="M29.8726 27.0435L42.4746 45.0689H37.3027L27.0192 30.3601V30.3592L25.5094 28.2L13.4966 11.0166H18.6685L28.3628 24.8842L29.8726 27.0435Z" fill="#00D962"/>
<path d="M49.9491 0H6.05092C2.70918 0 0 2.70918 0 6.05092V49.9491C0 53.2908 2.70918 56 6.05092 56H49.9491C53.2908 56 56 53.2908 56 49.9491V6.05092C56 2.70918 53.2908 0 49.9491 0ZM35.7186 47.4891L25.3123 32.344L12.2835 47.4891H8.91619L23.8171 30.1688L8.91619 8.48215H20.2814L30.1355 22.8235L42.4728 8.48215H45.8401L31.6311 24.9992H31.6302L47.0838 47.4891H35.7186Z" fill="#00D962"/>
</g>
<defs>
<clipPath id="clip0_81_26">
<rect width="56" height="56" fill="white"/>
</clipPath>
</defs>
</svg>
